# xmcd
#
# Track frame offsets: 
#        150
#        14891
#        30370
#        46529
#        60868
#        76527
#        92352
#        110183
#        126282
#        140651
#        154803
#        182755
#        211495
#        242679
#        256801
#        285438
#        302901
#        318035
#
# Disc length: 4426 seconds
#
# Revision: 0
# Processed by: cddbd v1.5.2PL0 Copyright (c) Steve Scherf et al.
# Submitted via: ExactAudioCopy v1.0b3
#
DISCID=e5114812
DTITLE=Various Artist - Trance Xperience - CD 2
DYEAR=1900
DGENRE=
TTITLE0=Gigi D'Agostino - L'Amour Tojours (Mpeter Radio Cut)
TTITLE1=Floorfilla - Anthem #5 (Enter The Arena) (Airplay Edit)
TTITLE2=Melba - Mabel (Radio Guitar)
TTITLE3=Dumonde - Never Look Back (Dumonde Radio Edit)
TTITLE4=SMP Pres. DJ T-Kay - In Your Mind (Radio Mix)
TTITLE5=RMN - La Serenissima (Radio Bartok)
TTITLE6=Storia Verda - La Galera (Radio Edit)
TTITLE7=Sunbeam - Do It (Single Cut)
TTITLE8=Nino Da Salva - This Is Your Sound
TTITLE9=Cygnus X - Superstring (Rank 1 Radio Edit)
TTITLE10=Diablo Feat. Scott Rooney - Remember 2001 (Vocal Mix)
TTITLE11=P.T.S. - Trance Atlantica (Iridium-Gold Mix)
TTITLE12=Shade On Grey - Moving On (Are You Strong Enough) (DJ Astrid 
TTITLE12=Mix)
TTITLE13=Jay Frog - Pushin' (Radio Edit)
TTITLE14=Detektor - Fly (Original Mix)
TTITLE15=3-Force - Secrets (Pos One Club Rmx)
TTITLE16=Trancelucent - Where Is The Love (Trancelucent In Deep Radio 
TTITLE16=Mix)
TTITLE17=Electrosteez - She Wants Sex (Trance Mix)
EXTD=
EXTT0=
EXTT1=
EXTT2=
EXTT3=
EXTT4=
EXTT5=
EXTT6=
EXTT7=
EXTT8=
EXTT9=
EXTT10=
EXTT11=
EXTT12=
EXTT13=
EXTT14=
EXTT15=
EXTT16=
EXTT17=
PLAYORDER=
